<?xml version="1.0" encoding="UTF-8" standalone="no"?>
<!-- Created with Inkscape (http://www.inkscape.org/) -->

<svg
   width="126.01881mm"
   height="126.01881mm"
   viewBox="0 0 126.01881 126.01881"
   version="1.1"
   id="svg1"
   xml:space="preserve"
   xmlns:xlink="http://www.w3.org/1999/xlink"
   xmlns="http://www.w3.org/2000/svg"
   xmlns:svg="http://www.w3.org/2000/svg"><defs
     id="defs1"><linearGradient
       id="linearGradient25"><stop
         style="stop-color:#a855f7;stop-opacity:1;"
         offset="0"
         id="stop25" /><stop
         style="stop-color:#ec4899;stop-opacity:1;"
         offset="1"
         id="stop26" /></linearGradient><linearGradient
       xlink:href="#linearGradient25"
       id="linearGradient26"
       x1="230.51994"
       y1="250.72079"
       x2="301.11594"
       y2="250.72079"
       gradientUnits="userSpaceOnUse" /><linearGradient
       xlink:href="#linearGradient25"
       id="linearGradient29"
       gradientUnits="userSpaceOnUse"
       x1="230.51994"
       y1="250.72079"
       x2="301.11594"
       y2="250.72079" /><linearGradient
       xlink:href="#linearGradient25"
       id="linearGradient30"
       gradientUnits="userSpaceOnUse"
       x1="230.51994"
       y1="250.72079"
       x2="301.11594"
       y2="250.72079" /><linearGradient
       xlink:href="#linearGradient25"
       id="linearGradient31"
       gradientUnits="userSpaceOnUse"
       x1="230.51994"
       y1="250.72079"
       x2="301.11594"
       y2="250.72079" /><linearGradient
       xlink:href="#linearGradient25"
       id="linearGradient32"
       gradientUnits="userSpaceOnUse"
       x1="230.51994"
       y1="250.72079"
       x2="301.11594"
       y2="250.72079" /><linearGradient
       xlink:href="#linearGradient25"
       id="linearGradient33"
       gradientUnits="userSpaceOnUse"
       x1="230.51994"
       y1="250.72079"
       x2="301.11594"
       y2="250.72079" /><linearGradient
       xlink:href="#linearGradient25"
       id="linearGradient34"
       gradientUnits="userSpaceOnUse"
       x1="230.51994"
       y1="250.72079"
       x2="301.11594"
       y2="250.72079" /><linearGradient
       xlink:href="#linearGradient25"
       id="linearGradient35"
       gradientUnits="userSpaceOnUse"
       x1="230.51994"
       y1="250.72079"
       x2="301.11594"
       y2="250.72079" /></defs><g
     id="layer1"
     transform="translate(-238.13832,-200.04044)"><g
       id="g35"><rect
         style="fill:#191a20;fill-opacity:1;stroke:none;stroke-width:0.141023;stroke-dasharray:none"
         id="rect29"
         width="126.01882"
         height="126.01882"
         x="238.13832"
         y="200.04042"
         ry="11.293932" /><g
         id="g25"
         style="fill:url(#linearGradient26)"
         transform="translate(35.329787,12.329036)"><g
           id="g29"
           style="fill:url(#linearGradient29)"><path
             style="fill:url(#linearGradient30);fill-opacity:1;stroke:none;stroke-width:0.1;stroke-dasharray:none"
             d="m 230.51995,214.7166 h 31.24161 c 0,0 7.41042,0.25263 11.70509,3.53679 3.71959,2.84439 5.97885,5.64202 7.57882,9.68406 1.90147,4.80372 1.26314,10.61036 1.26314,10.61036 0,0 -1.08935,-5.83641 -7.57883,-6.23148 -5.38993,-0.32813 -27.19957,-0.0842 -27.19957,-0.0842 z"
             id="path6-6" /><path
             style="fill:url(#linearGradient31);fill-opacity:1;stroke:none;stroke-width:0.1;stroke-dasharray:none"
             d="m 230.68836,232.23212 h 16.67343 l 14.98924,15.91554 h -10.35774 c 0,0 -9.21734,-0.94592 -16.92605,6.82095 -1.90673,1.92112 -4.21046,6.23148 -4.21046,6.23148 z"
             id="path7-2" /><path
             style="fill:url(#linearGradient32);fill-opacity:1;stroke:none;stroke-width:0.1;stroke-dasharray:none"
             d="m 230.66223,286.42884 16.41072,-17.45952 c 0,0 -0.18509,-13.20261 11.59854,-18.94019 h -8.08196 c 0,0 -16.28733,-0.74033 -19.8656,18.87849 z"
             id="path8-9" /><path
             style="fill:url(#linearGradient33);fill-opacity:1;stroke:none;stroke-width:0.1;stroke-dasharray:none"
             d="m 270.8116,214.76321 h 5.17806 c 0,0 23.67546,1.11771 25.0242,25.25102 -0.76465,29.69566 -29.6417,27.67621 -29.6417,27.67621 0,0 12.85536,-5.94959 12.90848,-18.64558 0.0531,-12.696 0,-16.14888 0,-16.14888 0,0 -1.75859,-13.52962 -13.46904,-18.13277 z"
             id="path9-1" /><path
             style="fill:url(#linearGradient34);fill-opacity:1;stroke:none;stroke-width:0.1;stroke-dasharray:none"
             d="m 249.14944,267.58095 c 0,0 1.09166,-8.37377 4.95868,-11.90084 4.5124,-4.11571 8.281,-5.15703 10.51241,-5.40497 2.23141,-0.24793 5.70249,-0.24793 5.70249,-0.24793 h 3.42149 c 0,0 2.92563,0.0992 4.51241,-1.1405 1.9163,-1.49711 2.9752,-2.6281 4.11571,-5.20662 0.0992,2.23141 -1e-5,5.70249 -1e-5,5.70249 0,0 -0.14876,4.76033 -3.17355,8.97522 -1.53257,2.13556 -5.40497,5.90083 -8.23142,7.28927 -2.82645,1.38843 -6.24794,1.8843 -7.28927,1.98347 -1.04132,0.0992 -14.52894,-0.0496 -14.52894,-0.0496 z"
             id="path10-2" /><path
             style="fill:url(#linearGradient35);fill-opacity:1;stroke:none;stroke-width:0.1;stroke-dasharray:none"
             d="m 264.39778,269.42218 10.51246,-0.1006 c 0,0 5.73407,-0.1509 9.85858,-1.71016 5.02988,5.93526 16.34712,19.11357 16.34712,19.11357 l -23.08717,-0.0503 z"
             id="path11-7" /></g></g></g></g></svg>
